<svg width="30" height="30" viewBox="0 0 30 30" fill="none" xmlns="http://www.w3.org/2000/svg">
<path d="M2.5 25V5H27.5V25H2.5ZM5 22.5H25V7.5H5V22.5ZM10 21.25H12.5V20H13.75C14.1042 20 14.401 19.8802 14.6406 19.6406C14.8802 19.401 15 19.1042 15 18.75V15C15 14.6458 14.8802 14.349 14.6406 14.1094C14.401 13.8698 14.1042 13.75 13.75 13.75H10V12.5H15V10H12.5V8.75H10V10H8.75C8.39583 10 8.09896 10.1198 7.85938 10.3594C7.61979 10.599 7.5 10.8958 7.5 11.25V15C7.5 15.3542 7.61979 15.651 7.85938 15.8906C8.09896 16.1302 8.39583 16.25 8.75 16.25H12.5V17.5H7.5V20H10V21.25ZM20 20.3125L22.5 17.8125H17.5L20 20.3125ZM17.5 12.5H22.5L20 10L17.5 12.5Z" fill="#504DE5"/>
</svg>
