<svg width="24" height="24" viewBox="0 0 24 24" fill="none" xmlns="http://www.w3.org/2000/svg">
<path d="M14.7999 11.975L13.3749 10.55L16.9499 5.99999H8.8249L6.8249 3.99999H18.9999C19.4166 3.99999 19.7166 4.18332 19.8999 4.54999C20.0832 4.91665 20.0499 5.26665 19.7999 5.59999L14.7999 11.975ZM19.7749 22.6L13.9999 16.825V19C13.9999 19.2833 13.9041 19.5208 13.7124 19.7125C13.5207 19.9042 13.2832 20 12.9999 20H10.9999C10.7166 20 10.4791 19.9042 10.2874 19.7125C10.0957 19.5208 9.9999 19.2833 9.9999 19V12.825L1.3999 4.22499L2.7999 2.79999L21.1999 21.2L19.7749 22.6Z" fill="#57636C"/>
</svg>
