<svg width="30" height="30" viewBox="0 0 30 30" fill="none" xmlns="http://www.w3.org/2000/svg">
<path d="M6.90625 26.25C6.34375 26.25 5.84375 26.0781 5.40625 25.7344C4.96875 25.3906 4.66667 24.9479 4.5 24.4062L1.3125 12.8438C1.20833 12.4479 1.27604 12.0833 1.51563 11.75C1.75521 11.4167 2.08333 11.25 2.5 11.25H8.4375L13.9375 3.0625C14.0417 2.89583 14.1875 2.76042 14.375 2.65625C14.5625 2.55208 14.7604 2.5 14.9688 2.5C15.1771 2.5 15.375 2.55208 15.5625 2.65625C15.75 2.76042 15.8958 2.89583 16 3.0625L21.5 11.25H27.5C27.9167 11.25 28.2448 11.4167 28.4844 11.75C28.724 12.0833 28.7917 12.4479 28.6875 12.8438L25.5 24.4062C25.3333 24.9479 25.0312 25.3906 24.5938 25.7344C24.1562 26.0781 23.6562 26.25 23.0938 26.25H6.90625ZM6.875 23.75H23.125L25.875 13.75H4.125L6.875 23.75ZM15 21.25C15.6875 21.25 16.276 21.0052 16.7656 20.5156C17.2552 20.026 17.5 19.4375 17.5 18.75C17.5 18.0625 17.2552 17.474 16.7656 16.9844C16.276 16.4948 15.6875 16.25 15 16.25C14.3125 16.25 13.724 16.4948 13.2344 16.9844C12.7448 17.474 12.5 18.0625 12.5 18.75C12.5 19.4375 12.7448 20.026 13.2344 20.5156C13.724 21.0052 14.3125 21.25 15 21.25ZM11.4688 11.25H18.5L14.9688 6L11.4688 11.25Z" fill="#504DE5"/>
</svg>
