<svg width="24" height="24" viewBox="0 0 24 24" fill="none" xmlns="http://www.w3.org/2000/svg">
<path d="M5.99993 10.95L4.99993 11.5C4.7666 11.6333 4.5166 11.6667 4.24993 11.6C3.98327 11.5333 3.78327 11.3833 3.64994 11.15L1.64993 7.65C1.5166 7.41667 1.48327 7.16667 1.54993 6.9C1.6166 6.63333 1.7666 6.43333 1.99993 6.3L7.74993 3H9.49994C9.64994 3 9.77077 3.04583 9.86244 3.1375C9.9541 3.22917 9.99994 3.35 9.99994 3.5V4C9.99994 4.55 10.1958 5.02083 10.5874 5.4125C10.9791 5.80417 11.4499 6 11.9999 6C12.5499 6 13.0208 5.80417 13.4124 5.4125C13.8041 5.02083 13.9999 4.55 13.9999 4V3.5C13.9999 3.35 14.0458 3.22917 14.1374 3.1375C14.2291 3.04583 14.3499 3 14.4999 3H16.2499L21.9999 6.3C22.2333 6.43333 22.3833 6.63333 22.4499 6.9C22.5166 7.16667 22.4833 7.41667 22.3499 7.65L20.3499 11.15C20.2166 11.3833 20.0208 11.5292 19.7624 11.5875C19.5041 11.6458 19.2499 11.6083 18.9999 11.475L17.9999 10.975V20C17.9999 20.2833 17.9041 20.5208 17.7124 20.7125C17.5208 20.9042 17.2833 21 16.9999 21H6.99993C6.7166 21 6.4791 20.9042 6.28744 20.7125C6.09577 20.5208 5.99993 20.2833 5.99993 20V10.95ZM7.99994 7.6V19H15.9999V7.6L19.0999 9.3L20.1499 7.55L15.8499 5.05C15.5999 5.9 15.1291 6.60417 14.4374 7.1625C13.7458 7.72083 12.9333 8 11.9999 8C11.0666 8 10.2541 7.72083 9.56244 7.1625C8.87077 6.60417 8.39994 5.9 8.14994 5.05L3.84994 7.55L4.89993 9.3L7.99994 7.6Z" fill="#57636C"/>
</svg>
