<svg width="30" height="30" viewBox="0 0 30 30" fill="none" xmlns="http://www.w3.org/2000/svg">
<path d="M13.6875 22.5L20.75 15.4375L18.9375 13.625L13.6562 18.9062L11.0312 16.2812L9.25 18.0625L13.6875 22.5ZM7.5 27.5C6.8125 27.5 6.22396 27.2552 5.73438 26.7656C5.24479 26.276 5 25.6875 5 25V5C5 4.3125 5.24479 3.72396 5.73438 3.23438C6.22396 2.74479 6.8125 2.5 7.5 2.5H17.5L25 10V25C25 25.6875 24.7552 26.276 24.2656 26.7656C23.776 27.2552 23.1875 27.5 22.5 27.5H7.5ZM16.25 11.25V5H7.5V25H22.5V11.25H16.25Z" fill="#504DE5"/>
</svg>
