<svg width="30" height="30" viewBox="0 0 30 30" fill="none" xmlns="http://www.w3.org/2000/svg">
<path d="M11.25 22.5H25V19.1562H11.25V22.5ZM5 10.8438H8.75V7.5H5V10.8438ZM5 16.6875H8.75V13.3438H5V16.6875ZM5 22.5H8.75V19.1562H5V22.5ZM11.25 16.6875H25V13.3438H11.25V16.6875ZM11.25 10.8438H25V7.5H11.25V10.8438ZM5 25C4.3125 25 3.72396 24.7552 3.23438 24.2656C2.74479 23.776 2.5 23.1875 2.5 22.5V7.5C2.5 6.8125 2.74479 6.22396 3.23438 5.73438C3.72396 5.24479 4.3125 5 5 5H25C25.6875 5 26.276 5.24479 26.7656 5.73438C27.2552 6.22396 27.5 6.8125 27.5 7.5V22.5C27.5 23.1875 27.2552 23.776 26.7656 24.2656C26.276 24.7552 25.6875 25 25 25H5Z" fill="#504DE5"/>
</svg>
