<svg width="23" height="23" viewBox="0 0 23 23" fill="none" xmlns="http://www.w3.org/2000/svg">
<path d="M2.55556 23C1.85278 23 1.25116 22.7498 0.750694 22.2493C0.250231 21.7488 0 21.1472 0 20.4444V2.55556C0 1.85278 0.250231 1.25116 0.750694 0.750694C1.25116 0.250231 1.85278 0 2.55556 0H20.4444C21.1472 0 21.7488 0.250231 22.2493 0.750694C22.7498 1.25116 23 1.85278 23 2.55556V20.4444C23 21.1472 22.7498 21.7488 22.2493 22.2493C21.7488 22.7498 21.1472 23 20.4444 23H2.55556ZM2.55556 20.4444H10.2222V2.55556H2.55556V20.4444ZM12.7778 20.4444H20.4444V11.5H12.7778V20.4444ZM12.7778 8.94444H20.4444V2.55556H12.7778V8.94444Z" fill="#595959"/>
</svg>
